<svg width="512" height="512" viewBox="0 0 512 512" fill="none" xmlns="http://www.w3.org/2000/svg">
<path d="M153.412 510C132.668 509.952 115.86 493.144 115.812 472.4V39.632C115.86 18.888 132.668 2.08 153.412 2.032H358.58C379.324 2.08 396.132 18.888 396.18 39.632V472.368C396.132 493.128 379.3 509.944 358.54 509.968L153.412 510Z" fill="white"/>
<path d="M358.58 4C378.252 4.024 394.188 19.96 394.212 39.632V472.368C394.18 492.032 378.244 507.968 358.58 508H153.412C133.74 507.976 117.804 492.04 117.78 472.368V39.632C117.804 19.96 133.74 4.024 153.412 4H358.58ZM358.58 0H153.412C131.548 0.064 113.844 17.768 113.78 39.632V472.368C113.844 494.232 131.548 511.936 153.412 512H358.58C380.444 511.936 398.148 494.232 398.22 472.368V39.632C398.156 17.768 380.444 0.056 358.58 0Z" fill="#AAC1CE"/>
<path d="M379.452 40.4H132.54V444.16H379.452V40.4Z" fill="#415E72"/>
<path d="M293.028 26.328H242.5C240.22 26.32 238.38 24.48 238.372 22.2C238.38 19.92 240.22 18.08 242.5 18.072H293.028C295.308 18.08 297.148 19.92 297.156 22.2C297.148 24.48 295.3 26.32 293.028 26.328Z" fill="#AAC1CE"/>
<path d="M218.964 26.328C221.244 26.328 223.092 24.4798 223.092 22.2C223.092 19.9202 221.244 18.072 218.964 18.072C216.684 18.072 214.836 19.9202 214.836 22.2C214.836 24.4798 216.684 26.328 218.964 26.328Z" fill="#AAC1CE"/>
<path d="M255.996 495.704C245.212 495.704 236.476 486.968 236.476 476.184C236.476 465.4 245.212 456.664 255.996 456.664C266.78 456.664 275.516 465.4 275.516 476.184C275.5 486.96 266.764 495.688 255.996 495.704ZM255.996 460.656C247.428 460.656 240.476 467.608 240.476 476.176C240.476 484.744 247.428 491.696 255.996 491.696C264.564 491.696 271.516 484.744 271.516 476.176C271.5 467.608 264.556 460.664 255.996 460.656Z" fill="#AAC1CE"/>
<path d="M190.14 92.04H150.14V132.04H190.14V92.04Z" fill="#EE3737"/>
<path d="M247.38 92.04H207.38V132.04H247.38V92.04Z" fill="white"/>
<path d="M304.636 92.04H264.636V132.04H304.636V92.04Z" fill="#25B6D2"/>
<path d="M361.836 92.04H321.836V132.04H361.836V92.04Z" fill="#E04F5F"/>
<path d="M190.14 157.144H150.14V197.144H190.14V157.144Z" fill="white"/>
<path d="M247.38 157.144H207.38V197.144H247.38V157.144Z" fill="#25B6D2"/>
<path d="M304.636 157.144H264.636V197.144H304.636V157.144Z" fill="#E04F5F"/>
<path d="M361.836 157.144H321.836V197.144H361.836V157.144Z" fill="#25B6D2"/>
<path d="M190.14 222.248H150.14V262.248H190.14V222.248Z" fill="#E04F5F"/>
<path d="M247.38 222.248H207.38V262.248H247.38V222.248Z" fill="white"/>
<path d="M304.636 222.248H264.636V262.248H304.636V222.248Z" fill="white"/>
<path d="M361.836 222.248H321.836V262.248H361.836V222.248Z" fill="#25B6D2"/>
<path d="M190.14 287.344H150.14V327.344H190.14V287.344Z" fill="#25B6D2"/>
<path d="M247.38 287.344H207.38V327.344H247.38V287.344Z" fill="#25B6D2"/>
<path d="M304.636 287.344H264.636V327.344H304.636V287.344Z" fill="#E04F5F"/>
<path d="M361.836 287.344H321.836V327.344H361.836V287.344Z" fill="white"/>
<path d="M190.14 352.48H150.14V392.48H190.14V352.48Z" fill="white"/>
<path d="M247.38 352.48H207.38V392.48H247.38V352.48Z" fill="#E04F5F"/>
<path d="M304.636 352.48H264.636V392.48H304.636V352.48Z" fill="#25B6D2"/>
<path d="M361.836 352.48H321.836V392.48H361.836V352.48Z" fill="#25B6D2"/>
</svg>
